<svg width="120" height="30" viewBox="0 0 120 30" fill="none" xmlns="http://www.w3.org/2000/svg">
<g id="logo">
<path d="M14.4469 5.04029C11.9267 5.04029 9.67033 5.65568 8.05861 6.79853V5.62637H0V29.9414H8.05861V24.2051C8.54945 24.4176 9.0696 24.5861 9.61172 24.7033C11.1795 25.1062 12.8278 25.2161 14.4396 25.2161C20.2418 25.2161 23.7289 21.6117 23.7289 15.5458C23.7289 9.47985 20.0366 5.02564 14.4396 5.02564L14.4469 5.04029ZM14.5201 11.7216C14.6154 11.4579 14.7473 11.2381 14.9817 11.0769C15.2088 10.9158 15.5018 10.8864 15.7582 10.989C15.978 11.0842 16.1392 11.2527 16.2564 11.4579C16.3516 11.6264 16.4322 11.8095 16.4762 12C16.5421 12.2784 16.5348 12.5494 16.4103 12.8132C16.3223 13.0037 16.1538 13.1648 15.9634 13.2527C15.7656 13.348 15.5311 13.4506 15.3114 13.4579L15.1209 13.5165C14.8645 13.5971 14.5275 13.4212 14.4762 13.1502C14.4249 12.9084 14.3956 12.6593 14.4103 12.4103C14.4249 12.1832 14.4542 11.9414 14.5348 11.7289L14.5201 11.7216ZM11.4432 11.7802C11.5165 11.5165 11.6777 11.2381 11.9121 11.1062C12.2051 10.9377 12.5421 11.0623 12.8278 11.1941C13.2747 11.3919 13.5458 11.8315 13.5751 12.315C13.5971 12.7912 13.3114 13.2308 12.8864 13.4359C12.7399 13.5092 12.359 13.5897 12.1978 13.5458C12.0586 13.5092 11.9634 13.4212 11.8828 13.304C11.5751 12.8645 11.2967 12.3443 11.4432 11.7875V11.7802ZM10.0513 15.0916C9.95605 15.0403 9.86813 14.967 9.78755 14.8938C9.73626 14.8498 9.69231 14.7985 9.64835 14.7546C9.57509 14.674 9.49451 14.5861 9.44322 14.4908C9.36996 14.359 9.34066 14.2271 9.33333 14.0806C9.32601 13.8681 9.39194 13.641 9.51648 13.4725C9.61172 13.3407 9.69963 13.2601 9.8315 13.1648C9.89011 13.1209 9.94139 13.0842 10.0073 13.0549C10.1319 12.9817 10.2784 12.967 10.4103 13.0037C10.5861 13.033 11.0183 13.3626 11.1355 13.5018C11.2967 13.685 11.3846 13.8974 11.3993 14.1392C11.4139 14.337 11.3553 14.5568 11.2527 14.7253C11.2015 14.8059 11.1429 14.8938 11.0696 14.9597C10.9597 15.0623 10.8645 15.1136 10.7253 15.1722C10.4982 15.2601 10.2564 15.2088 10.044 15.1062L10.0513 15.0916ZM16.5934 18.1245C15.6777 19.5678 14.5934 18.4322 13.7143 18.4322C12.8352 18.4322 11.9194 19.2161 11.2601 18.2564C10.6081 17.2967 11.5238 14.8059 13.5751 14.4542C15.2088 14.1758 17.5018 16.6813 16.5861 18.1245H16.5934ZM18.359 14.6593C18.337 14.7179 18.315 14.7766 18.2784 14.8352C18.2051 14.9451 18.1538 14.989 18.0513 15.0623C17.9194 15.1575 17.7509 15.1941 17.5971 15.2308C17.4579 15.2674 17.3114 15.2967 17.1722 15.3187C17.0696 15.3407 16.9524 15.37 16.8498 15.37C16.696 15.37 16.5641 15.304 16.4542 15.2088C16.337 15.1062 16.293 14.9451 16.2857 14.7912C16.2857 14.7253 16.3297 14.4176 16.337 14.3516C16.3516 14.1978 16.3736 14.0879 16.4396 13.9414C16.5421 13.7289 16.7619 13.5604 16.9963 13.5165C17.1941 13.4799 17.3773 13.4945 17.5751 13.5311C17.6337 13.5458 17.6923 13.5604 17.7436 13.5824C17.8901 13.641 17.978 13.685 18.1026 13.7875C18.1758 13.8462 18.2344 13.9194 18.2857 14C18.359 14.1245 18.381 14.2418 18.3956 14.3883C18.4029 14.4762 18.3956 14.5788 18.359 14.6593Z" fill="white"/>
<path d="M37.0403 5.04029C33.7875 5.04029 28.9524 5.74359 25.7875 7.00366L26.3736 12.9231C28.8645 12.1905 32.7619 11.3993 35.6044 11.3993C37.2161 11.3993 37.3626 11.5751 37.3626 12.9231V12.9817H34.7546C27.8974 12.9817 24.1758 15.8828 24.1758 19.7509C24.1758 23.1795 26.696 25.2601 31.8535 25.2601C33.8169 25.2601 35.9267 24.967 37.0696 24.5275L36.337 20.0733H36.044C34.1978 20.0733 32.9377 19.8974 32.9377 19.0183C32.9377 17.9927 34.4615 17.8168 36.63 17.8168H37.3626V24.674H45.4212V11.4872C45.4212 6.65201 42.696 5.04029 37.0403 5.04029Z" fill="white"/>
<path d="M66.6667 16.4396L64.3809 5.62637H58.1099L55.8535 16.4396L54.0366 5.62637H46.0073L51.2234 24.6667H59.4286L61.2454 16.0586L63.0623 24.6667H71.2308L76.4762 5.62637H68.4469L66.6667 16.4396Z" fill="white"/>
<path d="M90.0513 6.94506H92.7472L92.4542 0.498169C91.3993 0.205128 89.9927 0.0586081 88.9084 0.0586081C82.315 0.0586081 80.1758 1.64103 80.1758 7.44322V8.93773H77.0696V15.5311H80.1758V24.674H88.2344V15.5311H92.1612V8.93773H88.2344V8.61539C88.2344 7.2381 88.5275 6.94506 90.0513 6.94506Z" fill="white"/>
<path d="M94.359 10.315L102.418 10.9011V5.62637H94.359V10.315Z" fill="white"/>
<path d="M102.418 11.4872H94.359V24.674H102.418V11.4872Z" fill="white"/>
<path d="M117.304 17.7875C115.78 17.7875 115.487 17.4945 115.487 16.1172V12.2198H119.414V5.62637H115.487V0H107.429V5.62637H104.322V12.2198H107.429V17.2894C107.429 23.0916 109.568 24.674 116.161 24.674H119.707L120 17.7875H117.304Z" fill="white"/>
</g>
</svg>
