<svg width="200" height="50" viewBox="0 0 200 50" fill="none" xmlns="http://www.w3.org/2000/svg">
<g id="logo">
<path d="M24.2487 8.38164C20.0579 8.38164 16.3057 9.40498 13.6255 11.3055V9.35625H0.224609V49.7904H13.6255V40.2514C14.4417 40.6047 15.3067 40.8849 16.2082 41.0798C18.8153 41.7498 21.5564 41.9326 24.2365 41.9326C33.8852 41.9326 39.6841 35.9387 39.6841 25.8515C39.6841 15.7643 33.5441 8.35728 24.2365 8.35728L24.2487 8.38164ZM24.3706 19.4922C24.5289 19.0536 24.7482 18.6881 25.1381 18.4201C25.5157 18.1521 26.003 18.1034 26.4294 18.2739C26.7949 18.4323 27.0629 18.7125 27.2578 19.0536C27.4162 19.3338 27.5502 19.6384 27.6233 19.9551C27.733 20.4181 27.7208 20.8688 27.5137 21.3074C27.3675 21.6241 27.0873 21.8922 26.7705 22.0384C26.4416 22.1967 26.0518 22.3673 25.6863 22.3795L25.3695 22.4769C24.9431 22.6109 24.3827 22.3186 24.2975 21.8678C24.2122 21.4658 24.1635 21.0516 24.1878 20.6374C24.2122 20.2597 24.2609 19.8577 24.3949 19.5044L24.3706 19.4922ZM19.2539 19.5896C19.3757 19.1511 19.6437 18.6881 20.0335 18.4688C20.5209 18.1886 21.0813 18.3958 21.5564 18.615C22.2995 18.944 22.7503 19.6749 22.799 20.479C22.8355 21.2709 22.3604 22.0018 21.6538 22.3429C21.4102 22.4647 20.7767 22.5988 20.5087 22.5257C20.2772 22.4647 20.1188 22.3186 19.9848 22.1236C19.4731 21.3927 19.0102 20.5277 19.2539 19.6018V19.5896ZM16.9392 25.0962C16.7808 25.0109 16.6346 24.8891 16.5006 24.7673C16.4153 24.6942 16.3422 24.6089 16.2691 24.5358C16.1473 24.4018 16.0133 24.2556 15.928 24.0972C15.8062 23.8779 15.7574 23.6586 15.7453 23.415C15.7331 23.0617 15.8427 22.684 16.0498 22.4038C16.2082 22.1845 16.3544 22.0505 16.5737 21.8922C16.6711 21.8191 16.7564 21.7582 16.8661 21.7094C17.0732 21.5876 17.3168 21.5632 17.5361 21.6241C17.8285 21.6729 18.5473 22.2211 18.7422 22.4526C19.0102 22.7571 19.1564 23.1104 19.1808 23.5125C19.2051 23.8414 19.1077 24.2069 18.9371 24.4871C18.8518 24.6211 18.7544 24.7673 18.6325 24.8769C18.4498 25.0475 18.2914 25.1327 18.06 25.2302C17.6823 25.3764 17.2803 25.2911 16.927 25.1206L16.9392 25.0962ZM27.8182 30.1398C26.2954 32.5398 24.4924 30.6515 23.0305 30.6515C21.5686 30.6515 20.0457 31.955 18.9493 30.3591C17.865 28.7632 19.3879 24.6211 22.799 24.0363C25.5157 23.5734 29.3289 27.7398 27.8061 30.1398H27.8182ZM30.7542 24.3774C30.7177 24.4749 30.6812 24.5723 30.6202 24.6698C30.4984 24.8525 30.4131 24.9256 30.2426 25.0475C30.0233 25.2058 29.7431 25.2668 29.4873 25.3277C29.2558 25.3886 29.0121 25.4373 28.7807 25.4739C28.6101 25.5104 28.4152 25.5591 28.2446 25.5591C27.9888 25.5591 27.7695 25.4495 27.5868 25.2911C27.3918 25.1206 27.3188 24.8525 27.3066 24.5967C27.3066 24.4871 27.3797 23.9754 27.3918 23.8657C27.4162 23.6099 27.4528 23.4272 27.5624 23.1835C27.733 22.8302 28.0984 22.55 28.4883 22.4769C28.8172 22.416 29.1218 22.4404 29.4507 22.5013C29.5482 22.5257 29.6456 22.55 29.7309 22.5866C29.9746 22.684 30.1208 22.7571 30.3279 22.9277C30.4497 23.0251 30.5471 23.147 30.6324 23.281C30.7542 23.4881 30.7908 23.683 30.8152 23.9267C30.8273 24.0729 30.8152 24.2434 30.7542 24.3774Z" fill="#001A63"/>
<path d="M61.8199 8.38164C56.4108 8.38164 48.3703 9.55117 43.1074 11.6466L44.082 21.4901C48.2241 20.2719 54.7053 18.9562 59.4321 18.9562C62.1123 18.9562 62.356 19.2485 62.356 21.4901V21.5876H58.0189C46.616 21.5876 40.4272 26.4119 40.4272 32.8443C40.4272 38.5458 44.6181 42.0057 53.1946 42.0057C56.4596 42.0057 59.9682 41.5184 61.8687 40.7874L60.6504 33.3804H60.1631C57.0931 33.3804 54.9977 33.088 54.9977 31.6261C54.9977 29.9205 57.5316 29.6281 61.1377 29.6281H62.356V41.0311H75.7568V19.1023C75.7568 11.0618 71.2249 8.38164 61.8199 8.38164Z" fill="#001A63"/>
<path d="M111.086 27.3378L107.285 9.35625H96.8571L93.1049 27.3378L90.0836 9.35625H76.7314L85.4055 41.0189H99.05L102.071 26.7043L105.093 41.0189H118.676L127.399 9.35625H114.047L111.086 27.3378Z" fill="#001A63"/>
<path d="M149.973 11.5491H154.457L153.969 0.828418C152.215 0.341113 149.876 0.0974609 148.073 0.0974609C137.109 0.0974609 133.551 2.72891 133.551 12.3775V14.8628H128.386V25.8272H133.551V41.0311H146.952V25.8272H153.482V14.8628H146.952V14.3268C146.952 12.0364 147.439 11.5491 149.973 11.5491Z" fill="#001A63"/>
<path d="M157.137 17.1531L170.538 18.1277V9.35625H157.137V17.1531Z" fill="#001A63"/>
<path d="M170.538 19.1023H157.137V41.0311H170.538V19.1023Z" fill="#001A63"/>
<path d="M195.293 29.5794C192.759 29.5794 192.271 29.0921 192.271 26.8018V20.3206H198.801V9.35625H192.271V0H178.871V9.35625H173.705V20.3206H178.871V28.751C178.871 38.3996 182.428 41.0311 193.392 41.0311H199.289L199.776 29.5794H195.293Z" fill="#001A63"/>
</g>
</svg>
